<svg width="20" height="20" viewBox="0 0 20 20" fill="none" xmlns="http://www.w3.org/2000/svg">
<path fill-rule="evenodd" clip-rule="evenodd" d="M5.29279 6.29308C5.48031 6.10561 5.73462 6.00029 5.99979 6.00029C6.26495 6.00029 6.51926 6.10561 6.70679 6.29308L9.99979 9.58608L13.2928 6.29308C13.385 6.19757 13.4954 6.12139 13.6174 6.06898C13.7394 6.01657 13.8706 5.98898 14.0034 5.98783C14.1362 5.98668 14.2678 6.01198 14.3907 6.06226C14.5136 6.11254 14.6253 6.18679 14.7192 6.28069C14.8131 6.37458 14.8873 6.48623 14.9376 6.60913C14.9879 6.73202 15.0132 6.8637 15.012 6.99648C15.0109 7.12926 14.9833 7.26048 14.9309 7.38249C14.8785 7.50449 14.8023 7.61483 14.7068 7.70708L10.7068 11.7071C10.5193 11.8946 10.265 11.9999 9.99979 11.9999C9.73462 11.9999 9.48031 11.8946 9.29279 11.7071L5.29279 7.70708C5.10532 7.51955 5 7.26525 5 7.00008C5 6.73492 5.10532 6.48061 5.29279 6.29308Z" fill="black"/>
</svg>
