<svg width="16" height="16" viewBox="0 0 16 16" fill="none" xmlns="http://www.w3.org/2000/svg">
<path d="M11.7714 11.1047L8.94269 13.9333C8.81898 14.0571 8.67209 14.1554 8.5104 14.2224C8.3487 14.2894 8.17539 14.3239 8.00036 14.3239C7.82532 14.3239 7.65201 14.2894 7.49032 14.2224C7.32862 14.1554 7.18173 14.0571 7.05802 13.9333L4.22869 11.1047C3.48284 10.3588 2.97491 9.40845 2.76915 8.3739C2.56338 7.33934 2.66902 6.267 3.07269 5.29247C3.47637 4.31795 4.15995 3.48501 5.03701 2.89899C5.91407 2.31297 6.9452 2.00018 8.00002 2.00018C9.05485 2.00018 10.086 2.31297 10.963 2.89899C11.8401 3.48501 12.5237 4.31795 12.9274 5.29247C13.331 6.267 13.4367 7.33934 13.2309 8.3739C13.0251 9.40845 12.5172 10.3588 11.7714 11.1047V11.1047Z" stroke="#375DCA" stroke-width="1.3" stroke-linecap="round" stroke-linejoin="round"/>
<path d="M10 7.33331C10 7.86375 9.78929 8.37245 9.41421 8.74753C9.03914 9.1226 8.53043 9.33331 8 9.33331C7.46957 9.33331 6.96086 9.1226 6.58579 8.74753C6.21071 8.37245 6 7.86375 6 7.33331C6 6.80288 6.21071 6.29417 6.58579 5.9191C6.96086 5.54403 7.46957 5.33331 8 5.33331C8.53043 5.33331 9.03914 5.54403 9.41421 5.9191C9.78929 6.29417 10 6.80288 10 7.33331V7.33331Z" stroke="#375DCA" stroke-width="1.3" stroke-linecap="round" stroke-linejoin="round"/>
</svg>
