<svg width="51" height="14" viewBox="0 0 51 14" fill="none" xmlns="http://www.w3.org/2000/svg">
<path fill-rule="evenodd" clip-rule="evenodd" d="M4.69996 0.00238903C4.72193 0.00225632 4.746 0.00184275 4.77197 0.00139643C5.28278 -0.00738265 6.53114 -0.0288373 7.07509 1.82502C7.46013 3.13729 8.07347 5.28685 8.91512 8.2737H9.25789C10.1605 5.12475 10.7805 2.9752 11.118 1.82502C11.661 -0.0255944 12.9698 -0.00745198 13.6044 0.00134558C13.6448 0.00190552 13.6825 0.0024276 13.717 0.0024276L18.173 0.00243321V13.9999H13.6313V5.75097H13.3268L10.795 13.9999H7.37799L4.84623 5.74486H4.54168V13.9999H0V0.00243321L4.69996 0.00238903ZM24.6951 0.0024817V8.25759H25.0575L28.1371 1.46947C28.7349 0.118618 30.0091 0.0024817 30.0091 0.0024817H34.404V14H29.7675V5.74491H29.4052L26.3859 12.533C25.7881 13.8778 24.4536 14 24.4536 14H20.0586V0.0024817H24.6951ZM45.5029 9.83029C47.7515 9.83029 49.7826 8.50485 50.4293 6.65412H36.2315V13.9999H40.6406V9.83029H45.5029Z" fill="#40A548"/>
<path d="M45.7156 0.00250244H36.0004C36.2316 3.11883 38.8892 5.78661 41.6404 5.78661H50.7358C51.2607 3.19658 49.4538 0.00250244 45.7156 0.00250244Z" fill="#1291D0"/>
</svg>
