<svg width="48" height="48" viewBox="0 0 48 48" fill="none" xmlns="http://www.w3.org/2000/svg">
<rect width="48" height="48" rx="4" fill="#F68634"/>
<path d="M26.596 29.4403L30.1827 32.9028C30.9174 33.6106 30.9174 34.7601 30.1827 35.4686C29.4487 36.1771 28.259 36.1771 27.5258 35.4686L23.9994 32.0661L20.4761 35.4686C20.1087 35.8225 19.6273 35.9996 19.1459 35.9996C18.6653 35.9996 18.1846 35.8225 17.8173 35.4686C17.0833 34.7601 17.0833 33.6113 17.8165 32.9028L21.4035 29.4403C20.0976 29.1531 18.838 28.6536 17.6779 27.951C16.8 27.4167 16.5362 26.2972 17.0894 25.449C17.6411 24.5996 18.8012 24.3439 19.6806 24.8783C22.3072 26.4732 25.6908 26.4736 28.3189 24.8783C29.1984 24.3439 30.3581 24.5996 30.9109 25.449C31.4641 26.2964 31.1996 27.4167 30.3216 27.951C29.1615 28.6543 27.902 29.1531 26.596 29.4403Z" fill="white"/>
<path fill-rule="evenodd" clip-rule="evenodd" d="M17.5679 18.1936C17.5679 21.6079 20.4455 24.3853 23.9838 24.3853C27.5229 24.3853 30.3997 21.6079 30.3997 18.1936C30.3997 14.7781 27.5229 12 23.9838 12C20.4455 12 17.5679 14.7781 17.5679 18.1936ZM26.6403 18.1936C26.6403 16.7795 25.4487 15.6297 23.9838 15.6297C22.52 15.6297 21.3273 16.7795 21.3273 18.1936C21.3273 19.6065 22.52 20.7571 23.9838 20.7571C25.4487 20.7571 26.6403 19.6065 26.6403 18.1936Z" fill="white"/>
</svg>
