<svg width="48" height="48" viewBox="0 0 48 48" fill="none" xmlns="http://www.w3.org/2000/svg">
<rect width="48" height="48" rx="4" fill="#2AA1DB"/>
<path d="M19.5999 33C18.8224 33 18.9545 32.7064 18.6863 31.9661L16.3999 24.4412L33.9999 14" fill="#C8DAEA"/>
<path d="M19.6001 32.9999C20.2001 32.9999 20.4652 32.7255 20.8001 32.3999L24.0001 29.2883L20.0085 26.8813" fill="#A9C9DD"/>
<path d="M20.0079 26.882L29.6799 34.0278C30.7836 34.6368 31.5802 34.3215 31.8551 33.0031L35.7921 14.4505C36.1952 12.8344 35.1761 12.1015 34.1203 12.5808L11.0023 21.495C9.42424 22.128 9.43344 23.0084 10.7146 23.4006L16.6472 25.2523L30.3818 16.5873C31.0302 16.1941 31.6253 16.4055 31.1369 16.839" fill="url(#paint0_linear_5_194)"/>
<defs>
<linearGradient id="paint0_linear_5_194" x1="20.9955" y1="23.4742" x2="23.5599" y2="31.7692" gradientUnits="userSpaceOnUse">
<stop stop-color="#EFF7FC"/>
<stop offset="1" stop-color="white"/>
</linearGradient>
</defs>
</svg>
