<svg width="48" height="48" viewBox="0 0 48 48" fill="none" xmlns="http://www.w3.org/2000/svg">
<rect width="48" height="48" rx="4" fill="#2689F1"/>
<path d="M25.2554 31.8761C25.2554 31.8761 25.7174 31.8257 25.9541 31.5762C26.1707 31.3476 26.1632 30.9162 26.1632 30.9162C26.1632 30.9162 26.1344 28.9017 27.0872 28.6043C28.0263 28.3118 29.2321 30.5524 30.5117 31.4139C31.4783 32.0653 32.2121 31.9228 32.2121 31.9228L35.6315 31.8761C35.6315 31.8761 37.4195 31.7679 36.5719 30.3877C36.5017 30.2746 36.0773 29.3663 34.0301 27.5006C31.8853 25.5477 32.1733 25.8635 34.7551 22.4849C36.3277 20.4274 36.9563 19.1713 36.7597 18.6342C36.5731 18.1205 35.4162 18.2569 35.4162 18.2569L31.5672 18.2803C31.5672 18.2803 31.2818 18.2422 31.0702 18.3663C30.8636 18.488 30.7296 18.7719 30.7296 18.7719C30.7296 18.7719 30.1211 20.3635 29.3085 21.7179C27.5943 24.5742 26.9094 24.7254 26.629 24.5484C25.9766 24.1342 26.1394 22.8868 26.1394 22.0006C26.1394 19.2315 26.5676 18.0775 25.3067 17.7788C24.8885 17.6793 24.5805 17.6141 23.51 17.6031C22.1364 17.5895 20.9745 17.608 20.3159 17.9238C19.8777 18.134 19.5396 18.6035 19.7462 18.6305C20.0004 18.6637 20.5763 18.7829 20.8818 19.191C21.2762 19.7183 21.2625 20.9006 21.2625 20.9006C21.2625 20.9006 21.4891 24.1601 20.7328 24.5644C20.2145 24.8422 19.5033 24.2756 17.9745 21.6835C17.1919 20.3561 16.6009 18.8886 16.6009 18.8886C16.6009 18.8886 16.487 18.6146 16.2829 18.4671C16.0362 18.2889 15.6919 18.2336 15.6919 18.2336L12.0345 18.2569C12.0345 18.2569 11.4849 18.2717 11.2833 18.5064C11.1042 18.7141 11.2695 19.1455 11.2695 19.1455C11.2695 19.1455 14.133 25.7222 17.376 29.0369C20.3497 32.0752 23.7254 31.8761 23.7254 31.8761H25.2554Z" fill="white"/>
</svg>
